<!-- 满屏沙漏 -->
<svg xmlns="http://www.w3.org/2000/svg" width="100%" height="100%">
   <pattern id="tva-hourglass-pattern" x="0" y="0" patternUnits="userSpaceOnUse" width="129" height="134" viewBox="0 0 86 89"> 
      <g id="hourglasses">
        <polygon points="23.13 27.926 30.115 40.025 13.886 40.025 37 0 7 0 18.575 20.047 20.87 16.071 13.886 3.975 30.115 3.975 7 44 37 44 25.425 23.951 23.13 27.926"/>
        <polygon points="58.266 23.13 46.168 30.115 46.168 13.886 86.193 37 86.193 7 66.146 18.575 70.121 20.87 82.218 13.886 82.218 30.115 42.193 7 42.193 37 62.241 25.425 58.266 23.13"/>
        <polygon points="63.062 61.053 56.077 48.954 72.307 48.954 49.193 88.979 79.193 88.979 67.618 68.933 65.323 72.908 72.307 85.004 56.077 85.004 79.193 44.979 49.193 44.979 60.767 65.028 63.062 61.053"/>
        <polygon points="27.926 65.849 40.025 58.864 40.025 75.093 0 51.979 0 81.979 20.047 70.405 16.071 68.109 3.975 75.093 3.975 58.864 44 81.979 44 51.979 23.951 63.554 27.926 65.849"/>
     </g>
   </pattern>
   
   <rect x="0" y="0" width="100%" height="100%" fill="url(#tva-hourglass-pattern)" />
  
</svg>